HIERARCHY
ROOT Hips
{
	OFFSET 0.00000 0.00000 0.00000
	CHANNELS 6 Xposition Yposition Zposition Yrotation Zrotation Xrotation 
	JOINT Lumbar
	{
		OFFSET 0 0 0
		CHANNELS 3 Zrotation Xrotation Yrotation
		JOINT Neck
		{
			OFFSET 0.00 0.2701 0.00
			CHANNELS 3 Zrotation Xrotation Yrotation
			End Site
			{
				OFFSET 0.00 0.1379 0.00
			}
		}
		JOINT RightShoulder
		{
			OFFSET 0.0119 0.2289 0.1181
			CHANNELS 3 Zrotation Xrotation Yrotation
			JOINT RightElbow
			{
				OFFSET 0.00 -0.1475 0.00
				CHANNELS 2 Zrotation Yrotation
				JOINT RightWrist
				{
					OFFSET 0.00 -0.1605 0.00
					CHANNELS 2 Zrotation Xrotation
					End Site
					{
						OFFSET 0.0040 -0.1068 0.0006
					}
				}
			}
		}
		JOINT LeftShoulder
		{
			OFFSET 0.0119 0.2289 -0.1181
			CHANNELS 3 Zrotation Xrotation Yrotation
			JOINT LeftElbow
			{
				OFFSET 0.00 -0.1475 0.00
				CHANNELS 2 Zrotation Yrotation
				JOINT LeftWrist
				{
					OFFSET 0.00 -0.1605 0.00
					CHANNELS 2 Zrotation Xrotation
					End Site
					{
						OFFSET 0.0040 -0.1068 -0.0006
					}
				}
			}
		}
	}
	JOINT RightHip
	{
		OFFSET 0.0316 -0.0424 0.0458
		CHANNELS 3 Zrotation Xrotation Yrotation
		JOINT RightKnee
		{
			OFFSET 0.00 -0.2438 0.00
			CHANNELS 1 Zrotation
			JOINT RightAnkle
			{
				OFFSET 0.00 -0.2449 0.00
				CHANNELS 3 Zrotation Xrotation Yrotation
				End Site
				{
					OFFSET 0.1237 -0.0542 0.0051
				}
			}
		}
	}
	JOINT LeftHip
	{
		OFFSET 0.0316 -0.0424 -0.0458
		CHANNELS 3 Zrotation Xrotation Yrotation
		JOINT LeftKnee
		{
			OFFSET 0.00 -0.2438 0.00
			CHANNELS 1 Zrotation
			JOINT LeftAnkle
			{
				OFFSET 0.00 -0.2449 0.00
				CHANNELS 3 Zrotation Xrotation Yrotation
				End Site
				{
					OFFSET 0.1237 -0.0542 -0.0051
				}
			}
		}
	}
}
MOTION
Frames: 13
Frame Time: 0.02
-0.33246 0.54328 -0.55827 308.58563 0 -9.96092 -0.28296 10.2176 -15.81784 -26.98137 5.07073 -4.20622 28.17467 -37.59828 10.13005 114.09017 124.84612 -69.50601 -8.07779 61.8644 20.49942 -44.41422 104.80399 -126.9922 -59.0326 8.13247 22.34404 6.34567 -0.63526 -23.18103 -12.89068 -1.29769 -13.79709 0.45896 0.28255 16.95908 -22.37385 8.08104 6.66286 14.67658
-0.33433 0.54367 -0.55646 307.00443 0 -10.0074 0.18152 10.46758 -15.75003 -27.38921 4.79221 -4.35279 28.2935 -36.96442 10.17439 113.94023 124.97842 -69.50422 -8.10022 61.95481 20.48531 -44.50428 104.91393 -126.95608 -59.11047 8.12369 21.77195 5.40298 -1.35157 -24.39121 -12.23712 -1.37075 -14.1125 0.37682 0.52514 18.23492 -22.21457 8.05376 6.63439 14.74396
-0.33616 0.54384 -0.55415 305.61396 0 -10.01106 0.65517 10.68016 -15.8135 -27.77819 4.56084 -4.41319 28.36869 -36.35553 10.24835 113.80776 125.09754 -69.50237 -8.12135 61.78979 20.42496 -44.54721 104.95123 -126.97445 -59.25535 8.12392 21.06922 4.34401 -2.26072 -25.33319 -11.51659 -1.46119 -14.32616 0.30449 0.76249 19.34262 -22.19825 8.09767 6.64883 14.80013
-0.33803 0.54412 -0.55203 304.13657 0 -10.03549 1.11887 10.90881 -15.81127 -28.16633 4.31461 -4.50878 28.46091 -35.74366 10.31227 113.66281 125.2274 -69.50049 -8.1439 61.73116 20.38324 -44.60874 105.01537 -126.97778 -59.37612 8.12201 20.42211 3.34646 -3.11388 -26.35175 -10.85397 -1.53988 -14.58476 0.22751 1.00827 20.5144 -22.1242 8.1064 6.64012 14.85806
-0.33979 0.54436 -0.55004 302.66616 0 -10.05523 1.61035 11.14383 -15.83299 -28.59629 4.04319 -4.62194 28.56529 -35.09276 10.37023 113.52998 125.33999 -69.49879 -8.16337 61.69314 20.34283 -44.67283 105.09583 -126.94408 -59.46834 8.11281 19.78633 2.30631 -3.80962 -27.57375 -10.06944 -1.6362 -14.85898 0.15184 1.23281 21.7449 -22.02458 8.13042 6.6433 14.91635
-0.34179 0.54464 -0.54767 301.22259 0 -10.0737 2.04402 11.35474 -15.83556 -28.93338 3.83411 -4.67701 28.63421 -34.53041 10.44541 113.37927 125.48335 -69.49674 -8.18861 61.55954 20.29233 -44.72442 105.12847 -126.99728 -59.63558 8.12025 19.10022 1.33275 -4.88816 -28.30456 -9.52512 -1.69945 -15.07263 0.07495 1.49868 22.81232 -22.01004 8.13768 6.63299 14.9762
-0.34443 0.5451 -0.54445 299.82719 0 -10.10568 2.3262 11.52035 -15.76662 -29.02455 3.79006 -4.60196 28.61255 -34.20849 10.54835 113.16927 125.72676 -69.49357 -8.23224 61.22286 20.22139 -44.74751 105.0507 -127.29715 -60.00608 8.17528 18.27558 0.53465 -6.97559 -27.73449 -9.66052 -1.66655 -15.14365 -0.00036 1.87993 23.44878 -22.19777 8.08746 6.57833 15.04698
-0.34735 0.54561 -0.54087 298.44821 0 -10.13651 2.54768 11.66038 -15.67219 -29.02162 3.80613 -4.46998 28.55797 -33.97543 10.66862 112.94307 125.99886 -69.49008 -8.28126 60.80268 20.14332 -44.76184 104.92811 -127.67841 -60.44757 8.24591 17.41107 -0.18485 -9.44383 -26.68057 -10.03989 -1.59979 -15.15591 -0.07885 2.30222 23.92953 -22.46485 8.01618 6.50849 15.12103
-0.3502 0.54609 -0.53743 297.04698 0 -10.16368 2.78971 11.80414 -15.58041 -29.05762 3.79126 -4.35769 28.51964 -33.70032 10.78777 112.72839 126.25014 -69.48683 -8.32645 60.42381 20.07297 -44.7852 104.82479 -128.00911 -60.84917 8.30682 16.58553 -0.91607 -11.74345 -25.85142 -10.3096 -1.5485 -15.19365 -0.16029 2.70529 24.4949 -22.69365 7.95029 6.444 15.19302
-0.35281 0.54658 -0.53408 295.71313 0 -10.20744 3.06148 11.98051 -15.52905 -29.10905 3.79274 -4.26737 28.4714 -33.43117 10.87942 112.49495 126.53497 -69.48316 -8.37764 60.0186 19.98408 -44.78585 104.72299 -128.3996 -61.28646 8.37927 15.66676 -1.75382 -14.03611 -24.98761 -10.57561 -1.49693 -15.23279 -0.22163 3.11117 24.997 -22.93779 7.90532 6.38766 15.26667
-0.356 0.54706 -0.53046 294.24259 0 -10.21639 3.25716 12.08265 -15.38804 -29.10642 3.7746 -4.12031 28.44026 -33.17274 11.03229 112.2987 126.75549 -69.48032 -8.41738 59.65543 19.93005 -44.83185 104.6089 -128.68346 -61.66387 8.43115 14.9352 -2.34813 -16.42436 -24.09075 -10.9033 -1.43837 -15.25687 -0.32724 3.52034 25.59489 -23.16583 7.80989 6.30993 15.33797
-0.36069 0.5475 -0.52623 292.37086 0 -10.13425 3.25423 11.9921 -14.98619 -28.97645 3.68064 -3.819 28.43464 -32.90283 11.3472 112.19118 126.80363 -69.47966 -8.42641 59.40192 19.99786 -45.0103 104.46866 -128.65857 -61.8713 8.42334 14.72381 -2.3 -19.03922 -23.16772 -11.38327 -1.363 -15.249 -0.54016 3.9349 26.50364 -23.34175 7.58736 6.17904 15.40177
-0.36597 0.54793 -0.52173 290.36435 0 -10.01641 3.17764 11.82665 -14.49852 -28.79606 3.56593 -3.46537 28.45442 -32.64446 11.72336 112.12527 126.78402 -69.47988 -8.42338 59.20136 20.09693 -45.23411 104.31909 -128.52218 -62.0132 8.39408 14.70357 -2.00688 -21.7233 -22.23899 -11.90903 -1.28288 -15.22909 -0.79932 4.35079 27.51194 -23.49802 7.31273 6.02645 15.46332
